<svg width="561" height="558" viewBox="0 0 561 558" fill="none" xmlns="http://www.w3.org/2000/svg">
<g clip-path="url(#clip0_4850_127497)">
<g filter="url(#filter0_di_4850_127497)">
<path d="M63.8293 347.512C103.053 475.744 212.175 550.846 356.021 515.077C372.44 509.451 399.696 499.765 413.559 490.039C491.112 435.63 517.171 312.357 483.896 203.571C449.896 92.417 384.787 23.2267 269.71 32.1922C232.423 35.0971 203.258 43.2137 188.839 48.1545C80.5745 85.2527 24.6056 219.28 63.8293 347.512Z" fill="url(#paint0_radial_4850_127497)"/>
</g>
<g filter="url(#filter1_d_4850_127497)">
<ellipse cx="208.767" cy="242.879" rx="208.767" ry="242.879" transform="matrix(-0.946003 0.324158 0.292503 0.956265 440.363 -27.6251)" fill="url(#paint1_radial_4850_127497)"/>
<ellipse cx="208.767" cy="242.879" rx="208.767" ry="242.879" transform="matrix(-0.946003 0.324158 0.292503 0.956265 440.363 -27.6251)" fill="url(#paint2_linear_4850_127497)" fill-opacity="0.5" style="mix-blend-mode:overlay"/>
<path d="M242.923 40.222C133.968 77.5566 77.375 211.718 116.589 339.92C155.804 468.121 275.947 541.722 384.902 504.388C493.857 467.053 550.449 332.892 511.234 204.69C472.02 76.4888 351.877 2.8876 242.923 40.222Z" stroke="url(#paint3_radial_4850_127497)" stroke-width="0.3625"/>
</g>
<g filter="url(#filter2_ii_4850_127497)">
<ellipse cx="155.747" cy="180.424" rx="155.747" ry="180.424" transform="matrix(-0.946003 0.324158 0.292503 0.956265 408.471 49.2856)" fill="#DCC560"/>
</g>
<g style="mix-blend-mode:plus-darker">
<path d="M465.341 311.192C456.71 393.461 384.004 471.944 291.287 447.115C194.191 421.114 154.633 325.5 160.639 249.644L465.341 311.192Z" fill="black" fill-opacity="0.11"/>
</g>
<path d="M399.149 246.4C403.757 270.199 401.882 295.259 394.233 316.794C390.427 327.501 385.25 337.318 378.917 345.993C378.823 346.132 378.739 346.262 378.646 346.401C377.825 347.496 376.995 348.572 376.137 349.639C373.021 353.545 369.644 357.183 366.062 360.532C363.954 362.508 361.771 364.327 359.523 366.025C359.402 366.127 359.271 366.22 359.141 366.312C358.749 366.609 358.348 366.888 357.956 367.184C354.328 369.866 350.531 372.278 346.567 374.394C345.298 375.108 344.001 375.813 342.658 376.351C342.499 376.416 342.35 376.5 342.192 376.565C345.298 383.95 348.376 391.299 351.445 398.591C352.229 400.475 359.598 399.556 359.915 401.7C361.184 410.431 353.572 420.479 341.548 421.676L341.231 421.713C337.649 422.001 333.927 420.599 330.998 417.862C329.263 416.239 327.91 414.253 326.94 412.045C326.716 411.525 326.511 411.006 326.334 410.477C326.371 410.607 326.39 410.718 326.427 410.848C326.595 411.247 326.772 411.646 326.949 412.054C327.071 412.333 327.183 412.602 327.304 412.889C324.03 405.587 321.073 398.081 317.957 390.696C317.015 388.469 316.091 386.242 315.149 384.025C310.7 384.488 306.213 384.609 301.726 384.396C287.016 383.672 272.044 379.339 258.453 371.462C245.104 363.724 233.239 353.221 223.155 340.25C217.549 332.855 212.53 324.922 208.454 316.302C203.118 305.02 199.21 293.172 196.775 280.822C191.999 256.653 193.93 231.063 201.859 209.259C209.536 188.151 222.465 170.745 239.004 158.72C254.031 147.8 272.091 142.242 290.355 142.298C306.25 142.344 322.631 146.807 337.35 155.325C353.012 164.38 367.051 177.453 377.862 193.755C388.291 209.482 395.474 227.463 399.149 246.428V246.4ZM368.534 255.771C367.975 251.707 367.219 247.718 366.296 243.746C365.325 239.97 364.215 236.259 362.928 232.613C361.529 228.873 359.962 225.236 358.245 221.692C356.501 218.278 354.626 214.993 352.611 211.82C350.587 208.767 348.451 205.835 346.193 203.043C343.852 200.269 341.417 197.634 338.871 195.156C336.222 192.67 333.488 190.378 330.662 188.262C327.845 186.249 324.981 184.403 322.033 182.751C318.965 181.118 315.84 179.671 312.659 178.437C310.504 177.657 308.33 176.971 306.157 176.396C303.704 175.876 301.241 175.468 298.769 175.171C295.383 174.874 292.006 174.79 288.639 174.93C285.411 175.143 282.212 175.56 279.049 176.173C275.924 176.878 272.855 177.778 269.833 178.854C266.83 180.033 263.891 181.396 261.037 182.937C258.248 184.542 255.561 186.333 252.94 188.29C250.328 190.359 247.837 192.595 245.44 194.989C243.099 197.476 240.888 200.092 238.798 202.866C236.812 205.659 234.955 208.582 233.23 211.625C231.504 214.863 229.937 218.231 228.537 221.692C227.232 225.181 226.093 228.753 225.123 232.418C224.2 236.277 223.463 240.193 222.931 244.183C222.511 247.949 222.26 251.726 222.176 255.539C222.176 259.622 222.381 263.713 222.782 267.814C223.23 271.618 223.855 275.404 224.638 279.162C225.506 282.882 226.523 286.547 227.698 290.175C228.976 293.858 230.422 297.477 232.035 301.021C233.612 304.315 235.319 307.525 237.166 310.643C239.125 313.816 241.214 316.868 243.434 319.819C245.72 322.695 248.108 325.46 250.608 328.067C253.248 330.712 255.99 333.17 258.826 335.481C261.718 337.707 264.675 339.758 267.725 341.641C270.803 343.414 273.938 345.009 277.128 346.41C280.383 347.737 283.676 348.851 287.006 349.76C290.411 350.595 293.834 351.198 297.258 351.588C298.704 351.718 300.14 351.792 301.577 351.838C296.624 340.073 291.67 328.299 286.782 316.488C285.784 314.066 284.861 311.7 284.152 309.14C281.036 299.36 286.978 281.954 305.942 283.838C309.301 284.589 306.082 293.339 308.097 296.809C311.073 301.93 313.209 307.72 315.541 313.241C317.453 317.768 319.366 322.315 321.269 326.843C323.806 332.855 326.334 338.876 328.862 344.898C331.343 343.562 333.759 342.096 336.119 340.482C339.029 338.357 341.828 336.028 344.496 333.486C346.958 331.018 349.29 328.383 351.482 325.581C353.74 322.547 355.829 319.355 357.76 315.996C359.617 312.582 361.277 309.038 362.77 305.373C364.262 301.42 365.531 297.375 366.585 293.218C367.508 289.182 368.217 285.1 368.74 280.934C369.15 276.805 369.355 272.648 369.365 268.464C369.271 264.205 368.982 259.974 368.488 255.753L368.534 255.771Z" fill="#8C792A"/>
<path d="M315.121 345.101C318.395 344.637 321.622 343.941 324.822 343.051C328.003 342.049 331.118 340.842 334.169 339.414C337.238 337.864 340.204 336.11 343.086 334.144C345.997 332.019 348.795 329.69 351.463 327.157C353.926 324.68 356.258 322.045 358.459 319.243C360.717 316.209 362.815 313.017 364.737 309.658C366.584 306.244 368.254 302.699 369.746 299.035C371.239 295.091 372.507 291.046 373.562 286.88C374.485 282.844 375.194 278.762 375.716 274.596C376.127 270.467 376.332 266.31 376.341 262.126C376.257 257.867 375.959 253.636 375.474 249.405C374.914 245.35 374.159 241.352 373.235 237.38C372.274 233.604 371.155 229.893 369.868 226.256C368.468 222.517 366.901 218.87 365.185 215.335C363.44 211.921 361.566 208.636 359.56 205.463C357.536 202.411 355.4 199.479 353.142 196.686C350.801 193.902 348.366 191.267 345.82 188.799C343.17 186.322 340.428 184.021 337.611 181.906C334.803 179.892 331.93 178.055 328.992 176.394C325.913 174.761 322.788 173.323 319.626 172.089C316.604 170.994 313.554 170.094 310.494 169.38C307.229 168.703 303.974 168.239 300.709 168.007C297.64 167.849 294.589 167.895 291.558 168.118C288.554 168.415 285.578 168.907 282.64 169.575C279.842 170.28 277.09 171.161 274.385 172.191C271.67 173.314 269.03 174.585 266.437 176.014C263.993 177.461 261.614 179.029 259.301 180.737C259.189 180.82 259.077 180.904 258.965 180.987C258.555 181.312 258.144 181.637 257.743 181.971C257.622 182.073 257.501 182.175 257.379 182.277C257.379 182.277 257.361 182.286 257.361 182.295C255.803 183.594 254.282 184.958 252.799 186.378C252.753 186.424 252.706 186.471 252.659 186.517C252.585 186.591 252.501 186.665 252.426 186.74C252.352 186.814 252.277 186.888 252.202 186.962C252.109 187.055 252.016 187.148 251.932 187.241C251.857 187.315 251.783 187.389 251.717 187.463C251.699 187.491 251.671 187.51 251.652 187.538C249.721 189.56 247.883 191.685 246.111 193.902C244.777 195.675 243.49 197.502 242.268 199.386C241.699 200.249 241.148 201.13 240.607 202.021C240.607 202.03 240.598 202.04 240.589 202.049C240.169 202.773 239.768 203.505 239.367 204.238C239.301 204.368 239.227 204.489 239.162 204.619C239.162 204.619 239.162 204.637 239.152 204.637C237.996 206.781 236.913 208.98 235.897 211.244C235.85 211.346 235.813 211.448 235.766 211.55C235.757 211.578 235.747 211.596 235.738 211.624C234.432 214.741 233.266 217.933 232.221 221.218C231.251 224.539 230.421 227.926 229.731 231.377C229.731 231.377 229.731 231.396 229.731 231.405C229.712 231.489 229.703 231.572 229.684 231.646C229.059 235.228 228.583 238.856 228.276 242.53C228.033 246.26 227.949 250.027 228.033 253.812C228.192 257.579 228.509 261.337 228.994 265.104C229.526 268.676 230.188 272.23 231.009 275.765C231.886 279.244 232.902 282.668 234.05 286.064C235.318 289.589 236.746 293.041 238.313 296.427C239.908 299.693 241.624 302.866 243.48 305.965C245.411 309.037 247.464 312.006 249.637 314.854C252.025 317.832 254.525 320.681 257.165 323.362C259.87 325.988 262.678 328.456 265.607 330.738C268.592 332.956 271.661 334.969 274.823 336.797C277.892 338.458 281.008 339.924 284.198 341.195C287.612 342.448 291.054 343.459 294.552 344.238C298.031 344.906 301.52 345.342 305.018 345.537C308.423 345.621 311.809 345.472 315.177 345.101H315.121ZM292.472 373.409C265.327 367.007 241.12 346.456 225.841 319.326C216.373 302.505 210.757 283.382 209.013 264.297C208.91 263.731 208.826 263.155 208.78 262.571C207.203 242.762 210.011 222.841 216.69 205.565C220.431 195.888 225.365 186.999 231.251 179.206C231.746 178.538 232.259 177.87 232.772 177.211C236.811 172.034 241.354 167.413 246.26 163.396C246.923 162.83 247.603 162.264 248.303 161.772C249.115 161.15 249.936 160.538 250.756 159.944C251.857 159.146 252.986 158.376 254.115 157.634C257.016 155.722 260.047 154.043 263.135 152.521C278.032 145.173 295.242 142.733 311.958 145.711C330.447 148.996 348.487 158.487 363.58 173.435C371.771 181.544 379.084 191.258 384.895 202.021C392.833 216.718 398.113 232.89 400.539 249.999C405.716 286.537 395.436 323.427 373.571 347.68C363.608 358.74 351.416 366.951 338.171 371.479C330.829 373.994 323.264 375.376 315.624 375.692C307.929 376.007 300.177 375.218 292.472 373.4V373.409Z" fill="#AF9838"/>
<path d="M334.192 402.645C320.806 373.289 310.032 342.624 297.448 312.878C289.538 292.67 313.735 283.827 320.2 304.657C332.438 333.42 342.662 363.203 355.731 391.548C362.69 408.704 342.205 419.559 334.201 402.645H334.192Z" fill="#AF9838"/>
<path d="M323.661 344.221C326.795 343.525 329.883 342.625 332.905 341.539C335.89 340.37 338.81 339.015 341.655 337.475C344.444 335.87 347.14 334.089 349.752 332.131C352.289 330.127 354.733 327.956 357.056 325.646C359.388 323.205 361.598 320.607 363.679 317.87C365.787 314.948 367.746 311.886 369.546 308.685C371.244 305.484 372.783 302.162 374.173 298.739C375.488 295.231 376.635 291.631 377.615 287.948C378.529 284.125 379.257 280.238 379.788 276.294C380.227 272.388 380.488 268.445 380.553 264.465C380.535 260.568 380.339 256.652 379.966 252.746C379.509 248.896 378.884 245.064 378.091 241.26C377.223 237.521 376.206 233.846 375.022 230.209C373.781 226.628 372.372 223.102 370.824 219.66C369.21 216.255 367.457 212.952 365.563 209.741C363.613 206.587 361.533 203.544 359.332 200.621C357.037 197.717 354.63 194.933 352.102 192.298C349.519 189.71 346.823 187.288 344.034 185.015C341.142 182.769 338.176 180.71 335.125 178.835C332.038 177.036 328.875 175.43 325.666 174.02C322.42 172.703 319.127 171.58 315.797 170.661C312.458 169.845 309.109 169.233 305.732 168.834C302.346 168.537 298.969 168.453 295.602 168.583C292.374 168.806 289.175 169.223 286.012 169.836C282.888 170.541 279.819 171.441 276.796 172.517C273.793 173.695 270.864 175.05 268 176.599C265.211 178.205 262.515 179.995 259.903 181.944C257.291 184.013 254.791 186.249 252.403 188.643C250.062 191.12 247.851 193.755 245.762 196.52C243.775 199.322 241.909 202.235 240.193 205.279C238.467 208.517 236.9 211.885 235.501 215.355C234.195 218.843 233.066 222.415 232.086 226.071C231.172 229.931 230.435 233.846 229.894 237.827C229.475 241.584 229.223 245.37 229.139 249.193C229.139 253.275 229.344 257.367 229.745 261.468C230.193 265.272 230.818 269.057 231.601 272.815C232.46 276.536 233.486 280.201 234.661 283.828C235.948 287.521 237.385 291.14 238.989 294.675C240.566 297.968 242.273 301.179 244.12 304.296C246.079 307.469 248.177 310.531 250.388 313.472C252.664 316.358 255.062 319.114 257.571 321.73C260.211 324.365 262.944 326.833 265.789 329.143C268.671 331.37 271.638 333.421 274.688 335.295C277.757 337.076 280.901 338.672 284.091 340.064C287.337 341.391 290.63 342.504 293.969 343.413C297.374 344.239 300.798 344.852 304.221 345.241C307.514 345.52 310.816 345.594 314.09 345.473C317.308 345.26 320.499 344.833 323.652 344.221H323.661ZM308.661 378.021C293.951 377.298 278.979 372.965 265.388 365.087C252.03 357.349 240.183 346.846 230.081 333.866C224.484 326.471 219.456 318.538 215.38 309.928C210.044 298.646 206.136 286.797 203.701 274.448C198.925 250.278 200.856 224.689 208.785 202.885C216.462 181.777 229.391 164.371 245.929 152.346C260.957 141.426 279.016 135.868 297.281 135.924C313.176 135.97 329.556 140.433 344.276 148.95C359.938 158.006 373.977 171.079 384.788 187.381C395.217 203.107 402.4 221.089 406.075 240.053C410.683 263.852 408.808 288.913 401.159 310.448C397.353 321.155 392.176 330.981 385.852 339.646C385.758 339.786 385.674 339.916 385.581 340.055C384.76 341.159 383.93 342.235 383.072 343.293C379.956 347.199 376.589 350.836 372.997 354.195C370.889 356.162 368.707 357.98 366.458 359.678C366.328 359.78 366.207 359.873 366.076 359.966C365.684 360.263 365.283 360.55 364.891 360.838C361.263 363.529 357.457 365.932 353.502 368.038C352.233 368.762 350.927 369.467 349.593 369.996C341.039 374.013 331.879 376.574 322.504 377.604C317.924 378.105 313.288 378.253 308.652 378.021H308.661Z" fill="#AF9838"/>
<path d="M348.175 415.348C344.593 415.635 340.871 414.244 337.942 411.497C335.806 409.512 334.248 406.951 333.278 404.112C333.306 404.232 333.334 404.353 333.362 404.474C333.651 405.151 333.949 405.828 334.239 406.506C330.964 399.204 328.007 391.697 324.892 384.312C321.823 377.019 318.763 369.708 315.694 362.415C308.362 345 300.993 327.603 293.764 310.123C292.766 307.701 291.842 305.335 291.133 302.775C289.221 295.909 292.197 288.421 297.215 285.313C299.836 283.689 302.952 283.16 306.002 283.847C309.36 284.598 313.064 286.983 315.088 290.453C318.064 295.575 320.2 301.364 322.532 306.885C324.444 311.413 326.356 315.959 328.259 320.487C332.065 329.515 335.852 338.561 339.658 347.589C345.955 362.554 352.233 377.52 358.408 392.236C359.191 394.119 359.751 395.836 360.068 397.979C361.346 406.719 355.731 414.522 348.52 415.32C348.417 415.329 348.306 415.338 348.203 415.348H348.175Z" fill="#AF9838"/>
</g>
<defs>
<filter id="filter0_di_4850_127497" x="48.3047" y="30.4138" width="451.766" height="496.577" filterUnits="userSpaceOnUse" color-interpolation-filters="sRGB">
<feFlood flood-opacity="0" result="BackgroundImageFix"/>
<feColorMatrix in="SourceAlpha" type="matrix" values="0 0 0 0 0 0 0 0 0 0 0 0 0 0 0 0 0 0 127 0" result="hardAlpha"/>
<feOffset dx="-2" dy="2"/>
<feGaussianBlur stdDeviation="0.5"/>
<feComposite in2="hardAlpha" operator="out"/>
<feColorMatrix type="matrix" values="0 0 0 0 0.404167 0 0 0 0 0.2425 0 0 0 0 0 0 0 0 0.33 0"/>
<feBlend mode="multiply" in2="BackgroundImageFix" result="effect1_dropShadow_4850_127497"/>
<feBlend mode="normal" in="SourceGraphic" in2="effect1_dropShadow_4850_127497" result="shape"/>
<feColorMatrix in="SourceAlpha" type="matrix" values="0 0 0 0 0 0 0 0 0 0 0 0 0 0 0 0 0 0 127 0" result="hardAlpha"/>
<feOffset dx="2" dy="-1"/>
<feGaussianBlur stdDeviation="1"/>
<feComposite in2="hardAlpha" operator="arithmetic" k2="-1" k3="1"/>
<feColorMatrix type="matrix" values="0 0 0 0 0.572549 0 0 0 0 0.514255 0 0 0 0 0.2 0 0 0 1 0"/>
<feBlend mode="hard-light" in2="shape" result="effect2_innerShadow_4850_127497"/>
</filter>
<filter id="filter1_d_4850_127497" x="100.973" y="28.3271" width="423.879" height="487.955" filterUnits="userSpaceOnUse" color-interpolation-filters="sRGB">
<feFlood flood-opacity="0" result="BackgroundImageFix"/>
<feColorMatrix in="SourceAlpha" type="matrix" values="0 0 0 0 0 0 0 0 0 0 0 0 0 0 0 0 0 0 127 0" result="hardAlpha"/>
<feOffset dx="-1"/>
<feGaussianBlur stdDeviation="1"/>
<feComposite in2="hardAlpha" operator="out"/>
<feColorMatrix type="matrix" values="0 0 0 0 0 0 0 0 0 0 0 0 0 0 0 0 0 0 0.45 0"/>
<feBlend mode="soft-light" in2="BackgroundImageFix" result="effect1_dropShadow_4850_127497"/>
<feBlend mode="normal" in="SourceGraphic" in2="effect1_dropShadow_4850_127497" result="shape"/>
</filter>
<filter id="filter2_ii_4850_127497" x="157.363" y="92.4905" width="313.092" height="359.63" filterUnits="userSpaceOnUse" color-interpolation-filters="sRGB">
<feFlood flood-opacity="0" result="BackgroundImageFix"/>
<feBlend mode="normal" in="SourceGraphic" in2="BackgroundImageFix" result="shape"/>
<feColorMatrix in="SourceAlpha" type="matrix" values="0 0 0 0 0 0 0 0 0 0 0 0 0 0 0 0 0 0 127 0" result="hardAlpha"/>
<feOffset dx="0.3625" dy="0.3625"/>
<feComposite in2="hardAlpha" operator="arithmetic" k2="-1" k3="1"/>
<feColorMatrix type="matrix" values="0 0 0 0 0 0 0 0 0 0 0 0 0 0 0 0 0 0 1 0"/>
<feBlend mode="soft-light" in2="shape" result="effect1_innerShadow_4850_127497"/>
<feColorMatrix in="SourceAlpha" type="matrix" values="0 0 0 0 0 0 0 0 0 0 0 0 0 0 0 0 0 0 127 0" result="hardAlpha"/>
<feOffset dx="-0.3625"/>
<feComposite in2="hardAlpha" operator="arithmetic" k2="-1" k3="1"/>
<feColorMatrix type="matrix" values="0 0 0 0 0.984342 0 0 0 0 0.77635 0 0 0 0 0.584357 0 0 0 0.4 0"/>
<feBlend mode="plus-lighter" in2="effect1_innerShadow_4850_127497" result="effect2_innerShadow_4850_127497"/>
</filter>
<radialGradient id="paint0_radial_4850_127497" cx="0" cy="0" r="1" gradientTransform="matrix(-424.353 21.4615 5.90151 348.606 561.006 89.423)" gradientUnits="userSpaceOnUse">
<stop offset="0.0991329" stop-color="#928033"/>
<stop offset="0.43" stop-color="#DCC560"/>
<stop offset="0.80981" stop-color="#DCC560"/>
<stop offset="1" stop-color="#928033"/>
</radialGradient>
<radialGradient id="paint1_radial_4850_127497" cx="0" cy="0" r="1" gradientTransform="matrix(-86.4891 -468.409 391.088 -97.7388 259.467 506.576)" gradientUnits="userSpaceOnUse">
<stop offset="0.788512" stop-color="#928033"/>
<stop offset="1" stop-color="#DCC560"/>
</radialGradient>
<linearGradient id="paint2_linear_4850_127497" x1="96.0241" y1="74.9462" x2="370.621" y2="390.853" gradientUnits="userSpaceOnUse">
<stop stop-color="white"/>
<stop offset="0.555853" stop-color="white" stop-opacity="0"/>
</linearGradient>
<radialGradient id="paint3_radial_4850_127497" cx="0" cy="0" r="1" gradientTransform="matrix(60.4633 -423.947 -372.256 -96.0509 277.195 468.172)" gradientUnits="userSpaceOnUse">
<stop offset="0.584638" stop-color="#928033"/>
<stop offset="0.8" stop-color="#FFD9B1" stop-opacity="0.43"/>
<stop offset="0.965" stop-color="white"/>
</radialGradient>
<clipPath id="clip0_4850_127497">
<rect width="561" height="558" fill="white" transform="matrix(-1 0 0 1 561 0)"/>
</clipPath>
</defs>
</svg>
