<svg width="6161" height="1707" viewBox="0 0 6161 1707" fill="none" xmlns="http://www.w3.org/2000/svg">
<path d="M3080.27 3C3930.68 3.00004 4700.46 98.4712 5257.56 252.766C5536.12 329.919 5761.34 421.734 5916.84 523.56C6072.47 625.467 6157.55 736.9 6157.55 853.125C6157.55 969.35 6072.47 1080.78 5916.84 1182.69C5761.34 1284.52 5536.12 1376.33 5257.56 1453.48C4700.46 1607.78 3930.68 1703.25 3080.27 1703.25C2229.87 1703.25 1460.08 1607.78 902.992 1453.48C624.425 1376.33 399.21 1284.52 243.707 1182.69C88.0797 1080.78 3 969.35 3 853.125C3 736.9 88.0797 625.467 243.707 523.56C399.21 421.734 624.425 329.919 902.992 252.766C1460.08 98.4712 2229.87 3 3080.27 3Z" fill="#266F13" stroke="black" stroke-width="6"/>
</svg>
