<svg width="49351" height="5625" viewBox="0 0 49351 5625" fill="none" xmlns="http://www.w3.org/2000/svg">
<g clip-path="url(#clip0_5001_131874)">
<path d="M12776.9 131.01C13525.8 160.501 15177.5 -11.8991 15275.4 4.10961L15911.8 291.776L13532.7 7350.59L-415.479 7639.72L-954.802 502.939C-937.442 388.447 285.836 -26.0315 2216.66 202.935C5981.32 649.366 5806.56 5.61211 9146.31 289.69C11104.6 456.257 11418.7 77.5232 12776.9 131.01Z" fill="#63DFCB"/>
</g>
<g clip-path="url(#clip1_5001_131874)">
<path d="M11407.8 70.3894C10658.9 99.8805 10378.5 -11.8991 10280.6 4.10961L9644.2 291.776L12023.3 7771.83L25971.5 8060.96L26510.8 502.939C26493.4 388.447 25270.2 -26.0315 23339.3 202.935C19574.7 649.366 19749.4 5.61211 16409.7 289.69C14451.4 456.257 12766 16.903 11407.8 70.3894Z" fill="#63DFCB"/>
</g>
<g clip-path="url(#clip2_5001_131874)">
<path d="M36571.3 131.01C37320.2 160.501 38971.9 -11.8991 39069.8 4.10961L39706.1 291.776L37327.1 7350.59L23378.9 7639.72L22839.5 502.939C22856.9 388.447 24080.2 -26.0315 26011 202.935C29775.7 649.366 29600.9 5.61211 32940.7 289.69C34898.9 456.257 35213.1 77.5232 36571.3 131.01Z" fill="#63DFCB"/>
</g>
<g clip-path="url(#clip3_5001_131874)">
<path d="M35202.2 70.3894C34453.3 99.8805 34172.8 -11.8991 34074.9 4.10961L33438.5 291.776L35817.6 7771.83L49765.8 8060.96L50305.1 502.939C50287.8 388.447 49064.5 -26.0315 47133.7 202.935C43369 649.366 43543.8 5.61211 40204 289.69C38245.8 456.257 36560.4 16.903 35202.2 70.3894Z" fill="#63DFCB"/>
</g>
<defs>
<clipPath id="clip0_5001_131874">
<rect width="12778" height="5625" fill="white" transform="matrix(-1 0 0 1 12778 0)"/>
</clipPath>
<clipPath id="clip1_5001_131874">
<rect width="12778" height="5625" fill="white" transform="translate(12778)"/>
</clipPath>
<clipPath id="clip2_5001_131874">
<rect width="12778" height="5625" fill="white" transform="matrix(-1 0 0 1 36572.3 0)"/>
</clipPath>
<clipPath id="clip3_5001_131874">
<rect width="12778" height="5625" fill="white" transform="translate(36572.3)"/>
</clipPath>
</defs>
</svg>
